<svg xmlns="http://www.w3.org/2000/svg" width="1200" height="630" viewBox="0 0 1200 630" role="img" aria-labelledby="title desc">
  <title id="title">BTC Cowen ATC social preview</title>
  <desc id="desc">A clean preview card for the Bitcoin ATC quantile model chart.</desc>
  <defs>
    <linearGradient id="bg" x1="0" x2="1" y1="0" y2="1">
      <stop offset="0" stop-color="#101716" />
      <stop offset="0.54" stop-color="#182621" />
      <stop offset="1" stop-color="#294238" />
    </linearGradient>
    <linearGradient id="line" x1="0" x2="1">
      <stop offset="0" stop-color="#77c9bb" />
      <stop offset="1" stop-color="#e0a954" />
    </linearGradient>
  </defs>

  <rect width="1200" height="630" fill="url(#bg)" />
  <path d="M0 512 C190 470 325 548 505 490 C690 430 815 464 992 392 C1067 362 1138 358 1200 372 L1200 630 L0 630 Z" fill="#395d51" opacity="0.48" />
  <path d="M875 372 C920 356 952 326 990 312 C1038 294 1069 252 1135 208" fill="none" stroke="url(#line)" stroke-width="12" stroke-linecap="round" opacity="0.82" />
  <path d="M875 432 C936 406 985 370 1035 338 C1078 310 1105 286 1135 264" fill="none" stroke="#86bfb1" stroke-width="8" stroke-linecap="round" opacity="0.42" />
  <circle cx="1135" cy="208" r="13" fill="#e0a954" stroke="#edf3ea" stroke-width="5" />

  <g font-family="Inter, ui-sans-serif, system-ui, -apple-system, BlinkMacSystemFont, 'Segoe UI', sans-serif">
    <text x="78" y="92" font-size="31" font-weight="760" fill="#b9d8cf">BTC Cowen ATC</text>
    <text x="78" y="236" font-size="76" font-weight="820" fill="#f4f7ef">Bitcoin Quantile</text>
    <text x="78" y="324" font-size="76" font-weight="820" fill="#f4f7ef">Model Chart</text>
    <text x="82" y="404" font-size="30" font-weight="520" fill="#c8d8d2">Cowen asymmetric tail curvature bands</text>
    <text x="82" y="450" font-size="30" font-weight="520" fill="#c8d8d2">BTC/USD history with projection caveats</text>
  </g>
</svg>
